<?xml version="1.0" encoding="UTF-8" standalone="no"?>
<svg
   height="16"
   viewBox="0 0 16 16"
   width="16"
   version="1.1"
   id="svg2"
   xmlns="http://www.w3.org/2000/svg"
   xmlns:svg="http://www.w3.org/2000/svg">
  <defs
     id="defs2" />
  <g
     fill="#222222"
     id="g2">
    <path
       id="path1"
       style="display:inline"
       d="M 5,0 C 3.90625,0 3,0.910156 3,2 v 9 c 0,1.089844 0.90625,2 2,2 h 9 c 1.089844,0 2,-0.910156 2,-2 V 2 C 16,0.910156 15.089844,0 14,0 Z M 9.5,2 C 11.978517,2 14,4.021484 14,6.5 14,8.9785156 11.978517,11 9.5,11 7.0214845,11 5,8.9785156 5,6.5 5,4.021484 7.0214845,2 9.5,2 Z m 0,1.125 c -1.8632811,0 -3.375,1.5117183 -3.375,3.375 0,1.8632812 1.5117189,3.375 3.375,3.375 1.863282,0 3.375,-1.5117188 3.375,-3.375 0,-1.8632817 -1.511718,-3.375 -3.375,-3.375 z m 0,1.6875 c 0.931641,0 1.6875,0.7558589 1.6875,1.6875 0,0.9316406 -0.755859,1.6875 -1.6875,1.6875 C 8.5683595,8.1875 7.8125,7.4316406 7.8125,6.5 7.8125,5.5683589 8.5683595,4.8125 9.5,4.8125 Z m 0,0.5625 c -0.6218257,0 -1.125,0.5031733 -1.125,1.125 0,0.6218257 0.5031743,1.125 1.125,1.125 0.621827,0 1.125,-0.5031743 1.125,-1.125 0,-0.6218267 -0.503173,-1.125 -1.125,-1.125 z m 0,0.5625 c 0.3098149,0 0.5625,0.2526851 0.5625,0.5625 0,0.3098138 -0.2526851,0.5625 -0.5625,0.5625 C 9.1901863,7.0625 8.9375,6.8098138 8.9375,6.5 8.9375,6.1901851 9.1901863,5.9375 9.5,5.9375 Z" />
    <path
       d="M 2,3 C 0.90625,3 0,3.910156 0,5 v 9 c 0,1.089844 0.90625,2 2,2 h 9 c 1.089844,0 2,-0.910156 2,-2 H 2 Z m 0,0"
       id="path2"
       style="display:inline" />
  </g>
</svg>
